<svg width="240" height="240" viewBox="0 0 200 200" xmlns="http://www.w3.org/2000/svg">
<circle cx="100" cy="100" r="92" fill="#F8CFA0"/>

<!-- machine body -->
<rect x="52" y="48" width="96" height="104" rx="10" fill="#8A5230"/>
<rect x="52" y="48" width="96" height="104" rx="10" fill="none" stroke="#6B3A1F" stroke-width="2"/>

<!-- control panel -->
<rect x="64" y="58" width="72" height="14" rx="4" fill="#6B3A1F"/>
<circle cx="72" cy="65" r="3" fill="#F8CFA0"/>
<circle cx="82" cy="65" r="3" fill="#F8CFA0"/>
<rect x="92" y="61" width="36" height="8" rx="3" fill="#F8CFA0" opacity="0.6"/>

<!-- door -->
<circle cx="100" cy="112" r="34" fill="#6B3A1F"/>
<circle cx="100" cy="112" r="27" fill="#378ADD"/>
<circle cx="100" cy="112" r="27" fill="none" stroke="#4A2814" stroke-width="2"/>

<!-- water swirl -->
<path d="M86 100 Q94 92 102 100 Q110 108 118 100" stroke="#E6F1FB" stroke-width="3" fill="none" stroke-linecap="round"/>
<path d="M84 114 Q94 106 104 114 Q112 120 120 112" stroke="#85B7EB" stroke-width="3" fill="none" stroke-linecap="round" opacity="0.8"/>

<!-- bubbles -->
<circle cx="96" cy="128" r="4" fill="#E6F1FB" opacity="0.8"/>
<circle cx="110" cy="124" r="3" fill="#E6F1FB" opacity="0.6"/>
<circle cx="104" cy="134" r="2.5" fill="#E6F1FB" opacity="0.7"/>
</svg>
